STARTFONT 2.1
COMMENT
COMMENT Converted from OpenType font "CircularStd-Bold.otf" by "otf2bdf 3.0".
COMMENT
FONT -FreeType-Circular Std Bold-Medium-R-Normal--11-80-100-100-P-61-ISO10646-1
SIZE 8 100 100
FONTBOUNDINGBOX 17 13 0 -3
STARTPROPERTIES 19
FOUNDRY "FreeType"
FAMILY_NAME "Circular Std Bold"
WEIGHT_NAME "Medium"
SLANT "R"
SETWIDTH_NAME "Normal"
ADD_STYLE_NAME ""
PIXEL_SIZE 11
POINT_SIZE 80
RESOLUTION_X 100
RESOLUTION_Y 100
SPACING "P"
AVERAGE_WIDTH 61
CHARSET_REGISTRY "ISO10646"
CHARSET_ENCODING "1"
FONT_ASCENT 10
FONT_DESCENT 2
COPYRIGHT "Generated in 2013 by FontLab Studio. Copyright info pending."
_OTF_FONTFILE "CircularStd-Bold.otf"
_OTF_PSNAME "CircularStd-Bold"
ENDPROPERTIES
CHARS 332
STARTCHAR 0000
ENCODING 0
SWIDTH 0 0
DWIDTH 0 0
BBX 0 0 0 0
BITMAP
ENDCHAR
STARTCHAR 000D
ENCODING 13
SWIDTH 270 0
DWIDTH 3 0
BBX 0 0 0 0
BITMAP
ENDCHAR
STARTCHAR 0020
ENCODING 32
SWIDTH 270 0
DWIDTH 3 0
BBX 0 0 0 0
BITMAP
ENDCHAR
STARTCHAR 0021
ENCODING 33
SWIDTH 360 0
DWIDTH 4 0
BBX 2 8 1 0
BITMAP
C0
C0
C0
C0
80
80
80
C0
ENDCHAR
STARTCHAR 0022
ENCODING 34
SWIDTH 360 0
DWIDTH 4 0
BBX 4 3 0 5
BITMAP
F0
50
50
ENDCHAR
STARTCHAR 0023
ENCODING 35
SWIDTH 720 0
DWIDTH 8 0
BBX 8 8 0 0
BITMAP
16
14
7F
24
24
FE
28
28
ENDCHAR
STARTCHAR 0024
ENCODING 36
SWIDTH 630 0
DWIDTH 7 0
BBX 6 10 0 -1
BITMAP
10
38
7C
40
70
3C
C4
7C
38
10
ENDCHAR
STARTCHAR 0025
ENCODING 37
SWIDTH 810 0
DWIDTH 9 0
BBX 8 8 1 0
BITMAP
E6
A4
A8
F8
16
2D
2D
46
ENDCHAR
STARTCHAR 0026
ENCODING 38
SWIDTH 720 0
DWIDTH 8 0
BBX 6 8 1 0
BITMAP
70
D0
D0
70
F4
9C
DC
74
ENDCHAR
STARTCHAR 0027
ENCODING 39
SWIDTH 180 0
DWIDTH 2 0
BBX 2 3 0 5
BITMAP
C0
40
40
ENDCHAR
STARTCHAR 0028
ENCODING 40
SWIDTH 360 0
DWIDTH 4 0
BBX 3 11 0 -2
BITMAP
20
20
40
40
40
C0
40
40
40
20
20
ENDCHAR
STARTCHAR 0029
ENCODING 41
SWIDTH 360 0
DWIDTH 4 0
BBX 3 11 0 -2
BITMAP
80
40
60
20
20
20
20
20
60
40
80
ENDCHAR
STARTCHAR 002A
ENCODING 42
SWIDTH 450 0
DWIDTH 5 0
BBX 5 4 0 4
BITMAP
20
F8
70
50
ENDCHAR
STARTCHAR 002B
ENCODING 43
SWIDTH 630 0
DWIDTH 7 0
BBX 5 6 1 0
BITMAP
20
20
F8
20
20
20
ENDCHAR
STARTCHAR 002C
ENCODING 44
SWIDTH 270 0
DWIDTH 3 0
BBX 2 4 1 -2
BITMAP
C0
C0
40
80
ENDCHAR
STARTCHAR 002D
ENCODING 45
SWIDTH 360 0
DWIDTH 4 0
BBX 4 1 0 3
BITMAP
F0
ENDCHAR
STARTCHAR 002E
ENCODING 46
SWIDTH 270 0
DWIDTH 3 0
BBX 2 2 1 0
BITMAP
C0
C0
ENDCHAR
STARTCHAR 002F
ENCODING 47
SWIDTH 450 0
DWIDTH 5 0
BBX 5 8 0 0
BITMAP
08
18
10
30
20
60
40
C0
ENDCHAR
STARTCHAR 0030
ENCODING 48
SWIDTH 630 0
DWIDTH 7 0
BBX 6 8 0 0
BITMAP
38
6C
44
C4
C4
44
6C
38
ENDCHAR
STARTCHAR 0031
ENCODING 49
SWIDTH 360 0
DWIDTH 4 0
BBX 4 8 0 0
BITMAP
30
30
F0
30
30
30
30
30
ENDCHAR
STARTCHAR 0032
ENCODING 50
SWIDTH 540 0
DWIDTH 6 0
BBX 6 8 0 0
BITMAP
78
48
CC
08
38
60
40
FC
ENDCHAR
STARTCHAR 0033
ENCODING 51
SWIDTH 540 0
DWIDTH 6 0
BBX 6 8 0 0
BITMAP
FC
18
30
38
0C
CC
CC
78
ENDCHAR
STARTCHAR 0034
ENCODING 52
SWIDTH 630 0
DWIDTH 7 0
BBX 6 8 0 0
BITMAP
18
38
28
68
C8
FC
08
08
ENDCHAR
STARTCHAR 0035
ENCODING 53
SWIDTH 540 0
DWIDTH 6 0
BBX 5 8 1 0
BITMAP
F0
80
80
F0
18
98
98
F0
ENDCHAR
STARTCHAR 0036
ENCODING 54
SWIDTH 540 0
DWIDTH 6 0
BBX 6 8 0 0
BITMAP
3C
64
40
7C
CC
44
6C
38
ENDCHAR
STARTCHAR 0037
ENCODING 55
SWIDTH 540 0
DWIDTH 6 0
BBX 6 8 0 0
BITMAP
FC
08
10
30
20
60
60
60
ENDCHAR
STARTCHAR 0038
ENCODING 56
SWIDTH 540 0
DWIDTH 6 0
BBX 6 8 0 0
BITMAP
78
4C
4C
38
4C
CC
4C
78
ENDCHAR
STARTCHAR 0039
ENCODING 57
SWIDTH 540 0
DWIDTH 6 0
BBX 6 8 0 0
BITMAP
78
4C
CC
CC
7C
0C
18
70
ENDCHAR
STARTCHAR 003A
ENCODING 58
SWIDTH 270 0
DWIDTH 3 0
BBX 2 6 1 0
BITMAP
C0
C0
00
00
C0
C0
ENDCHAR
STARTCHAR 003B
ENCODING 59
SWIDTH 270 0
DWIDTH 3 0
BBX 2 8 1 -2
BITMAP
C0
C0
00
00
C0
C0
40
80
ENDCHAR
STARTCHAR 003C
ENCODING 60
SWIDTH 540 0
DWIDTH 6 0
BBX 5 6 0 0
BITMAP
08
38
E0
E0
38
08
ENDCHAR
STARTCHAR 003D
ENCODING 61
SWIDTH 630 0
DWIDTH 7 0
BBX 5 3 1 2
BITMAP
F8
00
F8
ENDCHAR
STARTCHAR 003E
ENCODING 62
SWIDTH 540 0
DWIDTH 6 0
BBX 5 6 0 0
BITMAP
80
60
18
18
60
80
ENDCHAR
STARTCHAR 003F
ENCODING 63
SWIDTH 540 0
DWIDTH 6 0
BBX 5 8 0 0
BITMAP
78
48
C8
18
30
20
20
30
ENDCHAR
STARTCHAR 0040
ENCODING 64
SWIDTH 810 0
DWIDTH 9 0
BBX 9 9 0 -1
BITMAP
1E00
6100
5F80
5680
F480
D500
5B00
6000
1E00
ENDCHAR
STARTCHAR 0041
ENCODING 65
SWIDTH 720 0
DWIDTH 8 0
BBX 8 8 0 0
BITMAP
18
18
3C
24
66
7E
42
C3
ENDCHAR
STARTCHAR 0042
ENCODING 66
SWIDTH 630 0
DWIDTH 7 0
BBX 5 8 1 0
BITMAP
F0
98
88
F0
98
88
98
F8
ENDCHAR
STARTCHAR 0043
ENCODING 67
SWIDTH 720 0
DWIDTH 8 0
BBX 8 8 0 0
BITMAP
3C
77
43
C0
C0
43
77
3C
ENDCHAR
STARTCHAR 0044
ENCODING 68
SWIDTH 720 0
DWIDTH 8 0
BBX 7 8 1 0
BITMAP
F8
9C
84
86
86
84
9C
F8
ENDCHAR
STARTCHAR 0045
ENCODING 69
SWIDTH 540 0
DWIDTH 6 0
BBX 5 8 1 0
BITMAP
F8
80
80
F8
80
80
80
F8
ENDCHAR
STARTCHAR 0046
ENCODING 70
SWIDTH 540 0
DWIDTH 6 0
BBX 5 8 1 0
BITMAP
F8
80
80
80
F0
80
80
80
ENDCHAR
STARTCHAR 0047
ENCODING 71
SWIDTH 810 0
DWIDTH 9 0
BBX 8 8 0 0
BITMAP
3E
77
42
C0
CF
43
77
3D
ENDCHAR
STARTCHAR 0048
ENCODING 72
SWIDTH 720 0
DWIDTH 8 0
BBX 6 8 1 0
BITMAP
84
84
84
FC
84
84
84
84
ENDCHAR
STARTCHAR 0049
ENCODING 73
SWIDTH 270 0
DWIDTH 3 0
BBX 1 8 1 0
BITMAP
80
80
80
80
80
80
80
80
ENDCHAR
STARTCHAR 004A
ENCODING 74
SWIDTH 540 0
DWIDTH 6 0
BBX 5 8 0 0
BITMAP
08
08
08
08
08
C8
D8
70
ENDCHAR
STARTCHAR 004B
ENCODING 75
SWIDTH 720 0
DWIDTH 8 0
BBX 6 8 1 0
BITMAP
8C
98
B0
A0
F0
D8
8C
8C
ENDCHAR
STARTCHAR 004C
ENCODING 76
SWIDTH 540 0
DWIDTH 6 0
BBX 5 8 1 0
BITMAP
80
80
80
80
80
80
80
F8
ENDCHAR
STARTCHAR 004D
ENCODING 77
SWIDTH 990 0
DWIDTH 11 0
BBX 9 8 1 0
BITMAP
C380
E380
E380
A780
B580
9D80
9D80
9980
ENDCHAR
STARTCHAR 004E
ENCODING 78
SWIDTH 810 0
DWIDTH 9 0
BBX 7 8 1 0
BITMAP
C6
E6
A6
B6
9E
9E
8E
86
ENDCHAR
STARTCHAR 004F
ENCODING 79
SWIDTH 810 0
DWIDTH 9 0
BBX 9 8 0 0
BITMAP
3C00
7700
4100
C180
C180
4100
7700
3C00
ENDCHAR
STARTCHAR 0050
ENCODING 80
SWIDTH 630 0
DWIDTH 7 0
BBX 5 8 1 0
BITMAP
F0
98
88
98
F0
80
80
80
ENDCHAR
STARTCHAR 0051
ENCODING 81
SWIDTH 810 0
DWIDTH 9 0
BBX 9 9 0 -1
BITMAP
3C00
7700
4100
C180
C580
4700
7700
3D00
0100
ENDCHAR
STARTCHAR 0052
ENCODING 82
SWIDTH 630 0
DWIDTH 7 0
BBX 5 8 1 0
BITMAP
F8
98
88
98
F0
B0
98
88
ENDCHAR
STARTCHAR 0053
ENCODING 83
SWIDTH 630 0
DWIDTH 7 0
BBX 5 8 1 0
BITMAP
70
D8
80
F0
78
88
D8
70
ENDCHAR
STARTCHAR 0054
ENCODING 84
SWIDTH 630 0
DWIDTH 7 0
BBX 7 8 0 0
BITMAP
FE
10
10
10
10
10
10
10
ENDCHAR
STARTCHAR 0055
ENCODING 85
SWIDTH 720 0
DWIDTH 8 0
BBX 6 8 1 0
BITMAP
8C
8C
8C
8C
8C
8C
FC
78
ENDCHAR
STARTCHAR 0056
ENCODING 86
SWIDTH 720 0
DWIDTH 8 0
BBX 7 8 0 0
BITMAP
C2
46
66
64
2C
3C
38
18
ENDCHAR
STARTCHAR 0057
ENCODING 87
SWIDTH 990 0
DWIDTH 11 0
BBX 11 8 0 0
BITMAP
C620
4E60
4E60
6B40
6B40
39C0
31C0
3180
ENDCHAR
STARTCHAR 0058
ENCODING 88
SWIDTH 630 0
DWIDTH 7 0
BBX 7 8 0 0
BITMAP
46
64
3C
38
38
3C
6C
C6
ENDCHAR
STARTCHAR 0059
ENCODING 89
SWIDTH 630 0
DWIDTH 7 0
BBX 7 8 0 0
BITMAP
C6
64
2C
38
10
10
10
10
ENDCHAR
STARTCHAR 005A
ENCODING 90
SWIDTH 630 0
DWIDTH 7 0
BBX 7 8 0 0
BITMAP
7E
06
0C
18
30
60
C0
FE
ENDCHAR
STARTCHAR 005B
ENCODING 91
SWIDTH 360 0
DWIDTH 4 0
BBX 2 11 1 -2
BITMAP
C0
80
80
80
80
80
80
80
80
80
C0
ENDCHAR
STARTCHAR 005C
ENCODING 92
SWIDTH 450 0
DWIDTH 5 0
BBX 5 8 0 0
BITMAP
C0
40
60
20
30
10
18
08
ENDCHAR
STARTCHAR 005D
ENCODING 93
SWIDTH 360 0
DWIDTH 4 0
BBX 3 11 0 -2
BITMAP
E0
60
60
60
60
60
60
60
60
60
E0
ENDCHAR
STARTCHAR 005E
ENCODING 94
SWIDTH 540 0
DWIDTH 6 0
BBX 5 4 0 4
BITMAP
30
30
48
C8
ENDCHAR
STARTCHAR 005F
ENCODING 95
SWIDTH 540 0
DWIDTH 6 0
BBX 6 1 0 -1
BITMAP
FC
ENDCHAR
STARTCHAR 0060
ENCODING 96
SWIDTH 270 0
DWIDTH 3 0
BBX 2 2 1 6
BITMAP
80
C0
ENDCHAR
STARTCHAR 0061
ENCODING 97
SWIDTH 540 0
DWIDTH 6 0
BBX 5 6 0 0
BITMAP
78
48
18
68
C8
78
ENDCHAR
STARTCHAR 0062
ENCODING 98
SWIDTH 630 0
DWIDTH 7 0
BBX 5 8 1 0
BITMAP
80
80
F0
D8
88
88
D8
F0
ENDCHAR
STARTCHAR 0063
ENCODING 99
SWIDTH 540 0
DWIDTH 6 0
BBX 6 6 0 0
BITMAP
38
6C
C0
C0
6C
38
ENDCHAR
STARTCHAR 0064
ENCODING 100
SWIDTH 630 0
DWIDTH 7 0
BBX 6 8 0 0
BITMAP
04
04
74
6C
C4
C4
4C
74
ENDCHAR
STARTCHAR 0065
ENCODING 101
SWIDTH 540 0
DWIDTH 6 0
BBX 6 6 0 0
BITMAP
38
4C
FC
C0
6C
38
ENDCHAR
STARTCHAR 0066
ENCODING 102
SWIDTH 360 0
DWIDTH 4 0
BBX 4 9 0 0
BITMAP
30
60
60
F0
60
60
60
60
60
ENDCHAR
STARTCHAR 0067
ENCODING 103
SWIDTH 630 0
DWIDTH 7 0
BBX 6 9 0 -3
BITMAP
7C
6C
CC
CC
4C
7C
4C
4C
78
ENDCHAR
STARTCHAR 0068
ENCODING 104
SWIDTH 540 0
DWIDTH 6 0
BBX 5 8 1 0
BITMAP
80
80
F0
D8
98
98
98
98
ENDCHAR
STARTCHAR 0069
ENCODING 105
SWIDTH 270 0
DWIDTH 3 0
BBX 1 9 1 0
BITMAP
80
80
00
80
80
80
80
80
80
ENDCHAR
STARTCHAR 006A
ENCODING 106
SWIDTH 270 0
DWIDTH 3 0
BBX 2 12 0 -3
BITMAP
40
40
00
40
40
40
40
40
40
40
40
C0
ENDCHAR
STARTCHAR 006B
ENCODING 107
SWIDTH 540 0
DWIDTH 6 0
BBX 5 8 1 0
BITMAP
80
80
98
B0
E0
F0
B0
98
ENDCHAR
STARTCHAR 006C
ENCODING 108
SWIDTH 270 0
DWIDTH 3 0
BBX 1 8 1 0
BITMAP
80
80
80
80
80
80
80
80
ENDCHAR
STARTCHAR 006D
ENCODING 109
SWIDTH 900 0
DWIDTH 10 0
BBX 8 6 1 0
BITMAP
F7
DB
99
99
99
99
ENDCHAR
STARTCHAR 006E
ENCODING 110
SWIDTH 540 0
DWIDTH 6 0
BBX 5 6 1 0
BITMAP
F0
D8
98
98
98
98
ENDCHAR
STARTCHAR 006F
ENCODING 111
SWIDTH 540 0
DWIDTH 6 0
BBX 6 6 0 0
BITMAP
38
6C
C4
C4
6C
38
ENDCHAR
STARTCHAR 0070
ENCODING 112
SWIDTH 630 0
DWIDTH 7 0
BBX 5 9 1 -3
BITMAP
F0
D8
88
88
D8
F0
80
80
80
ENDCHAR
STARTCHAR 0071
ENCODING 113
SWIDTH 630 0
DWIDTH 7 0
BBX 6 9 0 -3
BITMAP
74
6C
C4
C4
6C
74
04
04
04
ENDCHAR
STARTCHAR 0072
ENCODING 114
SWIDTH 360 0
DWIDTH 4 0
BBX 3 6 1 0
BITMAP
E0
C0
80
80
80
80
ENDCHAR
STARTCHAR 0073
ENCODING 115
SWIDTH 450 0
DWIDTH 5 0
BBX 5 6 0 0
BITMAP
70
D8
60
38
D8
70
ENDCHAR
STARTCHAR 0074
ENCODING 116
SWIDTH 360 0
DWIDTH 4 0
BBX 4 8 0 0
BITMAP
60
60
F0
60
60
60
60
30
ENDCHAR
STARTCHAR 0075
ENCODING 117
SWIDTH 630 0
DWIDTH 7 0
BBX 5 6 1 0
BITMAP
98
98
98
98
98
F8
ENDCHAR
STARTCHAR 0076
ENCODING 118
SWIDTH 540 0
DWIDTH 6 0
BBX 6 6 0 0
BITMAP
CC
48
68
78
30
30
ENDCHAR
STARTCHAR 0077
ENCODING 119
SWIDTH 810 0
DWIDTH 9 0
BBX 9 6 0 0
BITMAP
CD80
5D80
5500
7500
7700
3300
ENDCHAR
STARTCHAR 0078
ENCODING 120
SWIDTH 540 0
DWIDTH 6 0
BBX 5 6 0 0
BITMAP
C8
78
30
30
78
C8
ENDCHAR
STARTCHAR 0079
ENCODING 121
SWIDTH 540 0
DWIDTH 6 0
BBX 6 9 0 -3
BITMAP
CC
4C
68
38
30
30
30
20
60
ENDCHAR
STARTCHAR 007A
ENCODING 122
SWIDTH 450 0
DWIDTH 5 0
BBX 5 6 0 0
BITMAP
F8
18
30
60
40
F8
ENDCHAR
STARTCHAR 007B
ENCODING 123
SWIDTH 360 0
DWIDTH 4 0
BBX 4 11 0 -2
BITMAP
30
20
20
20
60
C0
60
20
20
20
30
ENDCHAR
STARTCHAR 007C
ENCODING 124
SWIDTH 270 0
DWIDTH 3 0
BBX 1 11 1 -2
BITMAP
80
80
80
80
80
80
80
80
80
80
80
ENDCHAR
STARTCHAR 007D
ENCODING 125
SWIDTH 360 0
DWIDTH 4 0
BBX 4 11 0 -2
BITMAP
C0
40
60
60
60
30
60
60
60
40
C0
ENDCHAR
STARTCHAR 007E
ENCODING 126
SWIDTH 540 0
DWIDTH 6 0
BBX 5 2 1 2
BITMAP
E8
38
ENDCHAR
STARTCHAR 00A0
ENCODING 160
SWIDTH 270 0
DWIDTH 3 0
BBX 0 0 0 0
BITMAP
ENDCHAR
STARTCHAR 00A1
ENCODING 161
SWIDTH 270 0
DWIDTH 3 0
BBX 2 8 1 -2
BITMAP
80
80
00
80
80
80
80
C0
ENDCHAR
STARTCHAR 00A2
ENCODING 162
SWIDTH 540 0
DWIDTH 6 0
BBX 6 8 0 0
BITMAP
10
38
68
C0
C0
6C
38
10
ENDCHAR
STARTCHAR 00A3
ENCODING 163
SWIDTH 630 0
DWIDTH 7 0
BBX 5 8 1 0
BITMAP
70
D8
C0
C0
F0
40
C8
F8
ENDCHAR
STARTCHAR 00A4
ENCODING 164
SWIDTH 630 0
DWIDTH 7 0
BBX 5 6 1 0
BITMAP
88
F8
98
98
F8
88
ENDCHAR
STARTCHAR 00A5
ENCODING 165
SWIDTH 630 0
DWIDTH 7 0
BBX 5 8 1 0
BITMAP
88
D8
50
F8
20
F8
20
20
ENDCHAR
STARTCHAR 00A6
ENCODING 166
SWIDTH 270 0
DWIDTH 3 0
BBX 1 11 1 -2
BITMAP
80
80
80
80
80
00
80
80
80
80
80
ENDCHAR
STARTCHAR 00A7
ENCODING 167
SWIDTH 540 0
DWIDTH 6 0
BBX 4 10 1 -2
BITMAP
70
90
80
E0
B0
D0
70
30
90
F0
ENDCHAR
STARTCHAR 00A8
ENCODING 168
SWIDTH 450 0
DWIDTH 5 0
BBX 4 2 0 6
BITMAP
10
D0
ENDCHAR
STARTCHAR 00A9
ENCODING 169
SWIDTH 810 0
DWIDTH 9 0
BBX 9 8 0 0
BITMAP
1C00
6300
5D00
B480
B480
5D00
6300
1C00
ENDCHAR
STARTCHAR 00AA
ENCODING 170
SWIDTH 450 0
DWIDTH 5 0
BBX 3 4 1 4
BITMAP
E0
20
E0
E0
ENDCHAR
STARTCHAR 00AB
ENCODING 171
SWIDTH 540 0
DWIDTH 6 0
BBX 5 5 0 1
BITMAP
28
58
D0
58
28
ENDCHAR
STARTCHAR 00AC
ENCODING 172
SWIDTH 630 0
DWIDTH 7 0
BBX 6 3 0 2
BITMAP
FC
04
04
ENDCHAR
STARTCHAR 00AD
ENCODING 173
SWIDTH 360 0
DWIDTH 4 0
BBX 4 1 0 3
BITMAP
F0
ENDCHAR
STARTCHAR 00AE
ENCODING 174
SWIDTH 810 0
DWIDTH 9 0
BBX 9 8 0 0
BITMAP
1C00
6300
5D00
9480
9C80
5500
6300
1E00
ENDCHAR
STARTCHAR 00AF
ENCODING 175
SWIDTH 360 0
DWIDTH 4 0
BBX 3 1 0 6
BITMAP
E0
ENDCHAR
STARTCHAR 00B0
ENCODING 176
SWIDTH 360 0
DWIDTH 4 0
BBX 4 4 0 4
BITMAP
60
90
90
60
ENDCHAR
STARTCHAR 00B1
ENCODING 177
SWIDTH 630 0
DWIDTH 7 0
BBX 5 5 1 1
BITMAP
20
F8
20
20
F8
ENDCHAR
STARTCHAR 00B2
ENCODING 178
SWIDTH 360 0
DWIDTH 4 0
BBX 3 4 1 4
BITMAP
C0
A0
C0
E0
ENDCHAR
STARTCHAR 00B3
ENCODING 179
SWIDTH 450 0
DWIDTH 5 0
BBX 3 4 1 4
BITMAP
E0
40
20
E0
ENDCHAR
STARTCHAR 00B4
ENCODING 180
SWIDTH 270 0
DWIDTH 3 0
BBX 2 2 1 6
BITMAP
C0
80
ENDCHAR
STARTCHAR 00B5
ENCODING 181
SWIDTH 630 0
DWIDTH 7 0
BBX 5 9 1 -3
BITMAP
98
98
98
98
D8
F8
80
80
80
ENDCHAR
STARTCHAR 00B6
ENCODING 182
SWIDTH 630 0
DWIDTH 7 0
BBX 7 11 0 -3
BITMAP
7E
F4
F4
F4
74
14
14
14
14
14
14
ENDCHAR
STARTCHAR 00B7
ENCODING 183
SWIDTH 270 0
DWIDTH 3 0
BBX 1 2 1 2
BITMAP
80
80
ENDCHAR
STARTCHAR 00B8
ENCODING 184
SWIDTH 270 0
DWIDTH 3 0
BBX 3 3 0 -3
BITMAP
40
20
E0
ENDCHAR
STARTCHAR 00B9
ENCODING 185
SWIDTH 270 0
DWIDTH 3 0
BBX 3 4 0 4
BITMAP
60
E0
60
60
ENDCHAR
STARTCHAR 00BA
ENCODING 186
SWIDTH 450 0
DWIDTH 5 0
BBX 4 4 1 4
BITMAP
E0
B0
B0
E0
ENDCHAR
STARTCHAR 00BB
ENCODING 187
SWIDTH 540 0
DWIDTH 6 0
BBX 5 5 0 1
BITMAP
D0
58
28
68
D0
ENDCHAR
STARTCHAR 00BC
ENCODING 188
SWIDTH 810 0
DWIDTH 9 0
BBX 8 8 1 0
BITMAP
C4
C8
48
50
76
2A
4F
C2
ENDCHAR
STARTCHAR 00BD
ENCODING 189
SWIDTH 810 0
DWIDTH 9 0
BBX 8 8 1 0
BITMAP
C4
C8
48
50
76
2B
46
CF
ENDCHAR
STARTCHAR 00BE
ENCODING 190
SWIDTH 900 0
DWIDTH 10 0
BBX 8 8 1 0
BITMAP
E2
44
6C
AB
FF
15
27
61
ENDCHAR
STARTCHAR 00BF
ENCODING 191
SWIDTH 450 0
DWIDTH 5 0
BBX 5 8 0 -2
BITMAP
30
30
00
20
60
C8
C8
78
ENDCHAR
STARTCHAR 00C0
ENCODING 192
SWIDTH 720 0
DWIDTH 8 0
BBX 8 10 0 0
BITMAP
30
00
18
18
3C
24
66
7E
42
C3
ENDCHAR
STARTCHAR 00C1
ENCODING 193
SWIDTH 720 0
DWIDTH 8 0
BBX 8 10 0 0
BITMAP
0C
00
18
18
3C
24
66
7E
42
C3
ENDCHAR
STARTCHAR 00C2
ENCODING 194
SWIDTH 720 0
DWIDTH 8 0
BBX 8 10 0 0
BITMAP
18
24
18
18
3C
24
66
7E
42
C3
ENDCHAR
STARTCHAR 00C3
ENCODING 195
SWIDTH 720 0
DWIDTH 8 0
BBX 8 10 0 0
BITMAP
34
28
18
18
3C
24
66
7E
42
C3
ENDCHAR
STARTCHAR 00C4
ENCODING 196
SWIDTH 720 0
DWIDTH 8 0
BBX 8 10 0 0
BITMAP
66
24
18
18
3C
24
66
7E
42
C3
ENDCHAR
STARTCHAR 00C5
ENCODING 197
SWIDTH 720 0
DWIDTH 8 0
BBX 8 10 0 0
BITMAP
18
28
18
18
3C
24
66
7E
42
C3
ENDCHAR
STARTCHAR 00C6
ENCODING 198
SWIDTH 1080 0
DWIDTH 12 0
BBX 11 8 0 0
BITMAP
07E0
0F00
0B00
1BE0
3300
3F00
6300
C3E0
ENDCHAR
STARTCHAR 00C7
ENCODING 199
SWIDTH 720 0
DWIDTH 8 0
BBX 8 11 0 -3
BITMAP
3C
77
63
C0
C0
40
63
3E
08
0C
1C
ENDCHAR
STARTCHAR 00C8
ENCODING 200
SWIDTH 540 0
DWIDTH 6 0
BBX 5 10 1 0
BITMAP
60
00
F8
80
80
F8
80
80
80
F8
ENDCHAR
STARTCHAR 00C9
ENCODING 201
SWIDTH 540 0
DWIDTH 6 0
BBX 5 10 1 0
BITMAP
30
00
F8
80
80
F8
80
80
80
F8
ENDCHAR
STARTCHAR 00CA
ENCODING 202
SWIDTH 540 0
DWIDTH 6 0
BBX 5 10 1 0
BITMAP
70
00
F8
80
80
F8
80
80
80
F8
ENDCHAR
STARTCHAR 00CB
ENCODING 203
SWIDTH 540 0
DWIDTH 6 0
BBX 5 10 1 0
BITMAP
D0
50
F8
80
80
F8
80
80
80
F8
ENDCHAR
STARTCHAR 00CC
ENCODING 204
SWIDTH 270 0
DWIDTH 3 0
BBX 2 10 0 0
BITMAP
C0
00
40
40
40
40
40
40
40
40
ENDCHAR
STARTCHAR 00CD
ENCODING 205
SWIDTH 270 0
DWIDTH 3 0
BBX 2 10 1 0
BITMAP
40
80
80
80
80
80
80
80
80
80
ENDCHAR
STARTCHAR 00CE
ENCODING 206
SWIDTH 270 0
DWIDTH 3 0
BBX 3 10 0 0
BITMAP
E0
00
40
40
40
40
40
40
40
40
ENDCHAR
STARTCHAR 00CF
ENCODING 207
SWIDTH 270 0
DWIDTH 3 0
BBX 3 10 0 0
BITMAP
A0
A0
40
40
40
40
40
40
40
40
ENDCHAR
STARTCHAR 00D0
ENCODING 208
SWIDTH 720 0
DWIDTH 8 0
BBX 8 8 0 0
BITMAP
7C
66
63
F3
63
63
66
7C
ENDCHAR
STARTCHAR 00D1
ENCODING 209
SWIDTH 810 0
DWIDTH 9 0
BBX 7 10 1 0
BITMAP
28
58
C6
E6
A6
B6
9E
9E
8E
86
ENDCHAR
STARTCHAR 00D2
ENCODING 210
SWIDTH 810 0
DWIDTH 9 0
BBX 9 10 0 0
BITMAP
1000
0800
3C00
7700
4100
C180
C180
4100
7700
3C00
ENDCHAR
STARTCHAR 00D3
ENCODING 211
SWIDTH 810 0
DWIDTH 9 0
BBX 9 10 0 0
BITMAP
0C00
0000
3C00
7700
4100
C180
C180
4100
7700
3C00
ENDCHAR
STARTCHAR 00D4
ENCODING 212
SWIDTH 810 0
DWIDTH 9 0
BBX 9 10 0 0
BITMAP
1C00
0000
3C00
7700
4100
C180
C180
4100
7700
3C00
ENDCHAR
STARTCHAR 00D5
ENCODING 213
SWIDTH 810 0
DWIDTH 9 0
BBX 9 10 0 0
BITMAP
1C00
2C00
3C00
7700
4100
C180
C180
4100
7700
3C00
ENDCHAR
STARTCHAR 00D6
ENCODING 214
SWIDTH 810 0
DWIDTH 9 0
BBX 9 10 0 0
BITMAP
2200
2200
3C00
7700
4100
C180
C180
4100
7700
3C00
ENDCHAR
STARTCHAR 00D7
ENCODING 215
SWIDTH 540 0
DWIDTH 6 0
BBX 5 5 1 1
BITMAP
98
F0
60
F0
98
ENDCHAR
STARTCHAR 00D8
ENCODING 216
SWIDTH 810 0
DWIDTH 9 0
BBX 9 10 0 -1
BITMAP
0100
3F00
7700
4500
CD80
D980
7100
7700
7C00
4000
ENDCHAR
STARTCHAR 00D9
ENCODING 217
SWIDTH 720 0
DWIDTH 8 0
BBX 6 10 1 0
BITMAP
60
00
8C
8C
8C
8C
8C
8C
FC
78
ENDCHAR
STARTCHAR 00DA
ENCODING 218
SWIDTH 720 0
DWIDTH 8 0
BBX 6 10 1 0
BITMAP
10
20
8C
8C
8C
8C
8C
8C
FC
78
ENDCHAR
STARTCHAR 00DB
ENCODING 219
SWIDTH 720 0
DWIDTH 8 0
BBX 6 10 1 0
BITMAP
30
40
8C
8C
8C
8C
8C
8C
FC
78
ENDCHAR
STARTCHAR 00DC
ENCODING 220
SWIDTH 720 0
DWIDTH 8 0
BBX 6 10 1 0
BITMAP
58
48
8C
8C
8C
8C
8C
8C
FC
78
ENDCHAR
STARTCHAR 00DD
ENCODING 221
SWIDTH 630 0
DWIDTH 7 0
BBX 7 10 0 0
BITMAP
08
10
C6
64
2C
38
10
10
10
10
ENDCHAR
STARTCHAR 00DE
ENCODING 222
SWIDTH 630 0
DWIDTH 7 0
BBX 5 8 1 0
BITMAP
80
80
F8
88
88
F8
80
80
ENDCHAR
STARTCHAR 00DF
ENCODING 223
SWIDTH 630 0
DWIDTH 7 0
BBX 5 8 1 0
BITMAP
70
D8
98
B0
B0
98
A8
B8
ENDCHAR
STARTCHAR 00E0
ENCODING 224
SWIDTH 540 0
DWIDTH 6 0
BBX 5 8 0 0
BITMAP
60
20
78
48
18
68
C8
78
ENDCHAR
STARTCHAR 00E1
ENCODING 225
SWIDTH 540 0
DWIDTH 6 0
BBX 5 8 0 0
BITMAP
18
30
78
48
18
68
C8
78
ENDCHAR
STARTCHAR 00E2
ENCODING 226
SWIDTH 540 0
DWIDTH 6 0
BBX 5 8 0 0
BITMAP
30
78
78
48
18
68
C8
78
ENDCHAR
STARTCHAR 00E3
ENCODING 227
SWIDTH 540 0
DWIDTH 6 0
BBX 5 9 0 0
BITMAP
60
78
10
78
48
18
68
C8
78
ENDCHAR
STARTCHAR 00E4
ENCODING 228
SWIDTH 540 0
DWIDTH 6 0
BBX 5 8 0 0
BITMAP
78
40
78
48
18
68
C8
78
ENDCHAR
STARTCHAR 00E5
ENCODING 229
SWIDTH 540 0
DWIDTH 6 0
BBX 5 9 0 0
BITMAP
30
50
30
78
48
18
68
C8
78
ENDCHAR
STARTCHAR 00E6
ENCODING 230
SWIDTH 900 0
DWIDTH 10 0
BBX 9 6 0 0
BITMAP
7F00
4C80
7F80
4800
CD80
7700
ENDCHAR
STARTCHAR 00E7
ENCODING 231
SWIDTH 540 0
DWIDTH 6 0
BBX 6 9 0 -3
BITMAP
38
6C
C0
C0
4C
78
10
18
30
ENDCHAR
STARTCHAR 00E8
ENCODING 232
SWIDTH 540 0
DWIDTH 6 0
BBX 6 8 0 0
BITMAP
20
30
38
4C
FC
C0
6C
38
ENDCHAR
STARTCHAR 00E9
ENCODING 233
SWIDTH 540 0
DWIDTH 6 0
BBX 6 8 0 0
BITMAP
18
10
38
4C
FC
C0
6C
38
ENDCHAR
STARTCHAR 00EA
ENCODING 234
SWIDTH 540 0
DWIDTH 6 0
BBX 6 8 0 0
BITMAP
30
68
38
4C
FC
C0
6C
38
ENDCHAR
STARTCHAR 00EB
ENCODING 235
SWIDTH 540 0
DWIDTH 6 0
BBX 6 8 0 0
BITMAP
68
08
38
4C
FC
C0
6C
38
ENDCHAR
STARTCHAR 00EC
ENCODING 236
SWIDTH 270 0
DWIDTH 3 0
BBX 2 8 0 0
BITMAP
C0
00
40
40
40
40
40
40
ENDCHAR
STARTCHAR 00ED
ENCODING 237
SWIDTH 270 0
DWIDTH 3 0
BBX 2 8 1 0
BITMAP
C0
00
80
80
80
80
80
80
ENDCHAR
STARTCHAR 00EE
ENCODING 238
SWIDTH 270 0
DWIDTH 3 0
BBX 3 8 0 0
BITMAP
E0
00
40
40
40
40
40
40
ENDCHAR
STARTCHAR 00EF
ENCODING 239
SWIDTH 270 0
DWIDTH 3 0
BBX 3 9 0 0
BITMAP
A0
A0
00
40
40
40
40
40
40
ENDCHAR
STARTCHAR 00F0
ENCODING 240
SWIDTH 540 0
DWIDTH 6 0
BBX 6 8 0 0
BITMAP
20
18
2C
7C
4C
C4
6C
38
ENDCHAR
STARTCHAR 00F1
ENCODING 241
SWIDTH 540 0
DWIDTH 6 0
BBX 5 9 1 0
BITMAP
40
F0
20
F0
D8
98
98
98
98
ENDCHAR
STARTCHAR 00F2
ENCODING 242
SWIDTH 540 0
DWIDTH 6 0
BBX 6 8 0 0
BITMAP
20
30
38
6C
C4
C4
6C
38
ENDCHAR
STARTCHAR 00F3
ENCODING 243
SWIDTH 540 0
DWIDTH 6 0
BBX 6 8 0 0
BITMAP
18
10
38
6C
C4
C4
6C
38
ENDCHAR
STARTCHAR 00F4
ENCODING 244
SWIDTH 540 0
DWIDTH 6 0
BBX 6 8 0 0
BITMAP
30
28
38
6C
C4
C4
6C
38
ENDCHAR
STARTCHAR 00F5
ENCODING 245
SWIDTH 540 0
DWIDTH 6 0
BBX 6 9 0 0
BITMAP
20
78
10
38
6C
C4
C4
6C
38
ENDCHAR
STARTCHAR 00F6
ENCODING 246
SWIDTH 540 0
DWIDTH 6 0
BBX 6 8 0 0
BITMAP
68
08
38
6C
C4
C4
6C
38
ENDCHAR
STARTCHAR 00F7
ENCODING 247
SWIDTH 630 0
DWIDTH 7 0
BBX 5 6 1 0
BITMAP
60
00
F8
00
60
60
ENDCHAR
STARTCHAR 00F8
ENCODING 248
SWIDTH 540 0
DWIDTH 6 0
BBX 6 7 0 -1
BITMAP
04
3C
6C
D4
F4
6C
78
ENDCHAR
STARTCHAR 00F9
ENCODING 249
SWIDTH 630 0
DWIDTH 7 0
BBX 5 8 1 0
BITMAP
60
00
98
98
98
98
98
F8
ENDCHAR
STARTCHAR 00FA
ENCODING 250
SWIDTH 630 0
DWIDTH 7 0
BBX 5 8 1 0
BITMAP
20
00
98
98
98
98
98
F8
ENDCHAR
STARTCHAR 00FB
ENCODING 251
SWIDTH 630 0
DWIDTH 7 0
BBX 5 8 1 0
BITMAP
70
00
98
98
98
98
98
F8
ENDCHAR
STARTCHAR 00FC
ENCODING 252
SWIDTH 630 0
DWIDTH 7 0
BBX 5 9 1 0
BITMAP
10
D0
00
98
98
98
98
98
F8
ENDCHAR
STARTCHAR 00FD
ENCODING 253
SWIDTH 540 0
DWIDTH 6 0
BBX 6 11 0 -3
BITMAP
10
00
CC
4C
68
38
30
30
30
20
60
ENDCHAR
STARTCHAR 00FE
ENCODING 254
SWIDTH 630 0
DWIDTH 7 0
BBX 5 11 1 -3
BITMAP
80
80
F0
D8
88
88
D8
F0
80
80
80
ENDCHAR
STARTCHAR 00FF
ENCODING 255
SWIDTH 540 0
DWIDTH 6 0
BBX 6 12 0 -3
BITMAP
08
68
00
CC
4C
68
38
30
30
30
20
60
ENDCHAR
STARTCHAR 0131
ENCODING 305
SWIDTH 270 0
DWIDTH 3 0
BBX 1 6 1 0
BITMAP
80
80
80
80
80
80
ENDCHAR
STARTCHAR 0141
ENCODING 321
SWIDTH 540 0
DWIDTH 6 0
BBX 6 8 0 0
BITMAP
60
60
60
70
E0
60
60
7C
ENDCHAR
STARTCHAR 0142
ENCODING 322
SWIDTH 360 0
DWIDTH 4 0
BBX 4 8 0 0
BITMAP
60
60
60
70
E0
60
60
60
ENDCHAR
STARTCHAR 0152
ENCODING 338
SWIDTH 1170 0
DWIDTH 13 0
BBX 12 8 0 0
BITMAP
3DF0
6700
4100
C1F0
C100
4300
7700
3DF0
ENDCHAR
STARTCHAR 0153
ENCODING 339
SWIDTH 900 0
DWIDTH 10 0
BBX 10 6 0 0
BITMAP
3B80
6CC0
C7C0
C400
6EC0
3B80
ENDCHAR
STARTCHAR 0160
ENCODING 352
SWIDTH 630 0
DWIDTH 7 0
BBX 5 10 1 0
BITMAP
50
20
70
D8
80
F0
78
88
D8
70
ENDCHAR
STARTCHAR 0161
ENCODING 353
SWIDTH 450 0
DWIDTH 5 0
BBX 5 8 0 0
BITMAP
50
30
70
D8
60
38
D8
70
ENDCHAR
STARTCHAR 0178
ENCODING 376
SWIDTH 630 0
DWIDTH 7 0
BBX 7 10 0 0
BITMAP
2C
20
C6
64
2C
38
10
10
10
10
ENDCHAR
STARTCHAR 017D
ENCODING 381
SWIDTH 630 0
DWIDTH 7 0
BBX 7 10 0 0
BITMAP
28
10
7E
06
0C
18
30
60
C0
FE
ENDCHAR
STARTCHAR 017E
ENCODING 382
SWIDTH 450 0
DWIDTH 5 0
BBX 5 8 0 0
BITMAP
70
00
F8
18
30
60
40
F8
ENDCHAR
STARTCHAR 0192
ENCODING 402
SWIDTH 540 0
DWIDTH 6 0
BBX 6 11 0 -2
BITMAP
1C
10
30
78
30
20
20
20
60
60
C0
ENDCHAR
STARTCHAR 02C6
ENCODING 710
SWIDTH 360 0
DWIDTH 4 0
BBX 3 2 1 6
BITMAP
C0
A0
ENDCHAR
STARTCHAR 02C7
ENCODING 711
SWIDTH 360 0
DWIDTH 4 0
BBX 3 2 1 6
BITMAP
A0
C0
ENDCHAR
STARTCHAR 02C9
ENCODING 713
SWIDTH 360 0
DWIDTH 4 0
BBX 3 1 0 6
BITMAP
E0
ENDCHAR
STARTCHAR 02D8
ENCODING 728
SWIDTH 360 0
DWIDTH 4 0
BBX 4 2 0 6
BITMAP
90
60
ENDCHAR
STARTCHAR 02D9
ENCODING 729
SWIDTH 180 0
DWIDTH 2 0
BBX 2 2 0 6
BITMAP
C0
C0
ENDCHAR
STARTCHAR 02DA
ENCODING 730
SWIDTH 270 0
DWIDTH 3 0
BBX 3 2 0 6
BITMAP
E0
E0
ENDCHAR
STARTCHAR 02DB
ENCODING 731
SWIDTH 180 0
DWIDTH 2 0
BBX 2 3 0 -3
BITMAP
40
80
40
ENDCHAR
STARTCHAR 02DC
ENCODING 732
SWIDTH 360 0
DWIDTH 4 0
BBX 4 3 0 6
BITMAP
40
F0
20
ENDCHAR
STARTCHAR 02DD
ENCODING 733
SWIDTH 360 0
DWIDTH 4 0
BBX 4 2 0 6
BITMAP
70
A0
ENDCHAR
STARTCHAR 0394
ENCODING 916
SWIDTH 720 0
DWIDTH 8 0
BBX 7 8 0 0
BITMAP
18
38
3C
2C
64
46
42
FE
ENDCHAR
STARTCHAR 03A9
ENCODING 937
SWIDTH 810 0
DWIDTH 9 0
BBX 8 8 0 0
BITMAP
3C
77
43
C1
43
63
34
77
ENDCHAR
STARTCHAR 03BC
ENCODING 956
SWIDTH 630 0
DWIDTH 7 0
BBX 5 9 1 -3
BITMAP
98
98
98
98
D8
F8
80
80
80
ENDCHAR
STARTCHAR 03C0
ENCODING 960
SWIDTH 630 0
DWIDTH 7 0
BBX 7 6 0 0
BITMAP
FE
6C
6C
6C
6C
66
ENDCHAR
STARTCHAR 2007
ENCODING 8199
SWIDTH 630 0
DWIDTH 7 0
BBX 0 0 0 0
BITMAP
ENDCHAR
STARTCHAR 2008
ENCODING 8200
SWIDTH 270 0
DWIDTH 3 0
BBX 0 0 0 0
BITMAP
ENDCHAR
STARTCHAR 200B
ENCODING 8203
SWIDTH 0 0
DWIDTH 0 0
BBX 0 0 0 0
BITMAP
ENDCHAR
STARTCHAR 2013
ENCODING 8211
SWIDTH 630 0
DWIDTH 7 0
BBX 5 1 1 3
BITMAP
F8
ENDCHAR
STARTCHAR 2014
ENCODING 8212
SWIDTH 1080 0
DWIDTH 12 0
BBX 10 1 1 3
BITMAP
FFC0
ENDCHAR
STARTCHAR 2018
ENCODING 8216
SWIDTH 270 0
DWIDTH 3 0
BBX 2 3 0 5
BITMAP
40
C0
40
ENDCHAR
STARTCHAR 2019
ENCODING 8217
SWIDTH 270 0
DWIDTH 3 0
BBX 2 3 0 5
BITMAP
C0
40
C0
ENDCHAR
STARTCHAR 201A
ENCODING 8218
SWIDTH 270 0
DWIDTH 3 0
BBX 2 4 0 -2
BITMAP
40
C0
40
80
ENDCHAR
STARTCHAR 201C
ENCODING 8220
SWIDTH 450 0
DWIDTH 5 0
BBX 4 3 0 5
BITMAP
50
D0
50
ENDCHAR
STARTCHAR 201D
ENCODING 8221
SWIDTH 450 0
DWIDTH 5 0
BBX 4 3 0 5
BITMAP
D0
50
D0
ENDCHAR
STARTCHAR 201E
ENCODING 8222
SWIDTH 450 0
DWIDTH 5 0
BBX 4 4 0 -2
BITMAP
50
D0
50
90
ENDCHAR
STARTCHAR 2020
ENCODING 8224
SWIDTH 450 0
DWIDTH 5 0
BBX 4 6 0 2
BITMAP
20
20
F0
20
20
20
ENDCHAR
STARTCHAR 2021
ENCODING 8225
SWIDTH 450 0
DWIDTH 5 0
BBX 3 8 1 0
BITMAP
40
40
E0
40
40
E0
40
40
ENDCHAR
STARTCHAR 2022
ENCODING 8226
SWIDTH 540 0
DWIDTH 6 0
BBX 4 5 1 1
BITMAP
60
F0
F0
F0
60
ENDCHAR
STARTCHAR 2026
ENCODING 8230
SWIDTH 900 0
DWIDTH 10 0
BBX 8 2 1 0
BITMAP
99
99
ENDCHAR
STARTCHAR 2030
ENCODING 8240
SWIDTH 1080 0
DWIDTH 12 0
BBX 11 8 1 0
BITMAP
E600
A400
A800
F800
1000
27C0
2960
46C0
ENDCHAR
STARTCHAR 2039
ENCODING 8249
SWIDTH 270 0
DWIDTH 3 0
BBX 3 5 0 1
BITMAP
20
40
C0
40
20
ENDCHAR
STARTCHAR 203A
ENCODING 8250
SWIDTH 270 0
DWIDTH 3 0
BBX 3 5 0 1
BITMAP
C0
40
20
60
C0
ENDCHAR
STARTCHAR 2042
ENCODING 8258
SWIDTH 810 0
DWIDTH 9 0
BBX 8 8 1 0
BITMAP
10
38
18
28
44
EF
C6
A6
ENDCHAR
STARTCHAR 2044
ENCODING 8260
SWIDTH 540 0
DWIDTH 6 0
BBX 6 8 0 0
BITMAP
04
08
18
10
30
20
40
C0
ENDCHAR
STARTCHAR 2051
ENCODING 8273
SWIDTH 450 0
DWIDTH 5 0
BBX 3 8 1 0
BITMAP
40
E0
C0
A0
40
E0
C0
A0
ENDCHAR
STARTCHAR 2070
ENCODING 8304
SWIDTH 450 0
DWIDTH 5 0
BBX 3 4 1 4
BITMAP
E0
A0
A0
E0
ENDCHAR
STARTCHAR 2074
ENCODING 8308
SWIDTH 450 0
DWIDTH 5 0
BBX 3 4 1 4
BITMAP
60
A0
E0
20
ENDCHAR
STARTCHAR 2075
ENCODING 8309
SWIDTH 450 0
DWIDTH 5 0
BBX 3 4 1 4
BITMAP
E0
C0
20
E0
ENDCHAR
STARTCHAR 2076
ENCODING 8310
SWIDTH 450 0
DWIDTH 5 0
BBX 3 4 1 4
BITMAP
E0
C0
A0
E0
ENDCHAR
STARTCHAR 2077
ENCODING 8311
SWIDTH 450 0
DWIDTH 5 0
BBX 3 4 1 4
BITMAP
E0
40
40
80
ENDCHAR
STARTCHAR 2078
ENCODING 8312
SWIDTH 450 0
DWIDTH 5 0
BBX 3 4 1 4
BITMAP
E0
A0
E0
E0
ENDCHAR
STARTCHAR 2079
ENCODING 8313
SWIDTH 450 0
DWIDTH 5 0
BBX 3 4 1 4
BITMAP
E0
A0
E0
C0
ENDCHAR
STARTCHAR 2080
ENCODING 8320
SWIDTH 450 0
DWIDTH 5 0
BBX 3 4 1 -1
BITMAP
E0
A0
A0
E0
ENDCHAR
STARTCHAR 2081
ENCODING 8321
SWIDTH 270 0
DWIDTH 3 0
BBX 3 4 0 -1
BITMAP
60
E0
60
60
ENDCHAR
STARTCHAR 2082
ENCODING 8322
SWIDTH 360 0
DWIDTH 4 0
BBX 3 4 1 -1
BITMAP
C0
A0
C0
E0
ENDCHAR
STARTCHAR 2083
ENCODING 8323
SWIDTH 450 0
DWIDTH 5 0
BBX 3 4 1 -1
BITMAP
E0
40
20
E0
ENDCHAR
STARTCHAR 2084
ENCODING 8324
SWIDTH 450 0
DWIDTH 5 0
BBX 3 4 1 -1
BITMAP
60
A0
E0
20
ENDCHAR
STARTCHAR 2085
ENCODING 8325
SWIDTH 450 0
DWIDTH 5 0
BBX 3 4 1 -1
BITMAP
E0
C0
20
E0
ENDCHAR
STARTCHAR 2086
ENCODING 8326
SWIDTH 450 0
DWIDTH 5 0
BBX 3 4 1 -1
BITMAP
E0
C0
A0
E0
ENDCHAR
STARTCHAR 2087
ENCODING 8327
SWIDTH 450 0
DWIDTH 5 0
BBX 3 4 1 -1
BITMAP
E0
40
40
80
ENDCHAR
STARTCHAR 2088
ENCODING 8328
SWIDTH 450 0
DWIDTH 5 0
BBX 3 4 1 -1
BITMAP
E0
A0
E0
E0
ENDCHAR
STARTCHAR 2089
ENCODING 8329
SWIDTH 450 0
DWIDTH 5 0
BBX 3 4 1 -1
BITMAP
E0
A0
E0
C0
ENDCHAR
STARTCHAR 20AC
ENCODING 8364
SWIDTH 720 0
DWIDTH 8 0
BBX 6 8 1 0
BITMAP
3C
74
60
F8
C0
F0
64
3C
ENDCHAR
STARTCHAR 2113
ENCODING 8467
SWIDTH 450 0
DWIDTH 5 0
BBX 4 8 0 0
BITMAP
30
50
50
70
60
C0
60
30
ENDCHAR
STARTCHAR 2122
ENCODING 8482
SWIDTH 900 0
DWIDTH 10 0
BBX 9 4 0 4
BITMAP
FD80
2D80
2B80
2A80
ENDCHAR
STARTCHAR 2126
ENCODING 8486
SWIDTH 810 0
DWIDTH 9 0
BBX 8 8 0 0
BITMAP
3C
77
43
C1
43
63
34
77
ENDCHAR
STARTCHAR 2160
ENCODING 8544
SWIDTH 540 0
DWIDTH 6 0
BBX 4 8 1 0
BITMAP
F0
60
60
60
60
60
60
F0
ENDCHAR
STARTCHAR 2161
ENCODING 8545
SWIDTH 810 0
DWIDTH 9 0
BBX 7 8 1 0
BITMAP
FE
6C
6C
6C
6C
6C
6C
FE
ENDCHAR
STARTCHAR 2162
ENCODING 8546
SWIDTH 1080 0
DWIDTH 12 0
BBX 10 8 1 0
BITMAP
FFC0
6D80
6D80
6D80
6D80
6D80
6D80
FFC0
ENDCHAR
STARTCHAR 2163
ENCODING 8547
SWIDTH 1080 0
DWIDTH 12 0
BBX 10 8 1 0
BITMAP
FFC0
5980
4980
4D00
4D00
4700
4700
FFC0
ENDCHAR
STARTCHAR 2164
ENCODING 8548
SWIDTH 810 0
DWIDTH 9 0
BBX 7 8 1 0
BITMAP
FE
44
6C
6C
28
28
38
FE
ENDCHAR
STARTCHAR 2165
ENCODING 8549
SWIDTH 1080 0
DWIDTH 12 0
BBX 10 8 1 0
BITMAP
FFC0
4580
6D80
6D80
2980
2980
3980
FFC0
ENDCHAR
STARTCHAR 2166
ENCODING 8550
SWIDTH 1350 0
DWIDTH 15 0
BBX 13 8 1 0
BITMAP
FFF8
45B0
6DB0
6DB0
29B0
29B0
39B0
FFF8
ENDCHAR
STARTCHAR 2167
ENCODING 8551
SWIDTH 1620 0
DWIDTH 18 0
BBX 16 8 1 0
BITMAP
FFFF
45B6
6DB6
6DB6
29B6
29B6
39B6
FFFF
ENDCHAR
STARTCHAR 2168
ENCODING 8552
SWIDTH 990 0
DWIDTH 11 0
BBX 10 8 1 0
BITMAP
FFC0
5980
4F00
4600
4600
4F00
4980
FFC0
ENDCHAR
STARTCHAR 2169
ENCODING 8553
SWIDTH 810 0
DWIDTH 9 0
BBX 7 8 1 0
BITMAP
FE
6C
68
38
38
78
6C
FE
ENDCHAR
STARTCHAR 216C
ENCODING 8556
SWIDTH 630 0
DWIDTH 7 0
BBX 6 8 1 0
BITMAP
F0
40
40
40
4C
4C
4C
FC
ENDCHAR
STARTCHAR 216D
ENCODING 8557
SWIDTH 720 0
DWIDTH 8 0
BBX 7 8 1 0
BITMAP
7E
CE
86
80
80
86
CE
7E
ENDCHAR
STARTCHAR 216E
ENCODING 8558
SWIDTH 720 0
DWIDTH 8 0
BBX 7 8 1 0
BITMAP
F8
4C
46
46
46
46
4C
F8
ENDCHAR
STARTCHAR 216F
ENCODING 8559
SWIDTH 1080 0
DWIDTH 12 0
BBX 10 8 1 0
BITMAP
E1C0
6380
7380
5780
5780
5D80
4D80
EFC0
ENDCHAR
STARTCHAR 2190
ENCODING 8592
SWIDTH 1080 0
DWIDTH 12 0
BBX 11 5 0 1
BITMAP
2000
6000
FFE0
6000
2000
ENDCHAR
STARTCHAR 2191
ENCODING 8593
SWIDTH 450 0
DWIDTH 5 0
BBX 4 11 1 -2
BITMAP
40
60
F0
60
60
60
60
60
60
60
60
ENDCHAR
STARTCHAR 2192
ENCODING 8594
SWIDTH 1080 0
DWIDTH 12 0
BBX 11 5 0 1
BITMAP
0080
00C0
FFE0
00C0
0080
ENDCHAR
STARTCHAR 2193
ENCODING 8595
SWIDTH 450 0
DWIDTH 5 0
BBX 5 11 0 -2
BITMAP
20
20
20
20
20
20
20
20
F8
70
20
ENDCHAR
STARTCHAR 2196
ENCODING 8598
SWIDTH 900 0
DWIDTH 10 0
BBX 7 8 1 0
BITMAP
E0
C0
E0
30
18
0C
06
02
ENDCHAR
STARTCHAR 2197
ENCODING 8599
SWIDTH 720 0
DWIDTH 8 0
BBX 7 8 0 0
BITMAP
0E
06
0E
18
30
60
C0
80
ENDCHAR
STARTCHAR 2198
ENCODING 8600
SWIDTH 900 0
DWIDTH 10 0
BBX 8 8 1 0
BITMAP
80
C0
60
30
19
0F
07
0F
ENDCHAR
STARTCHAR 2199
ENCODING 8601
SWIDTH 720 0
DWIDTH 8 0
BBX 8 8 0 0
BITMAP
01
03
06
0C
98
F0
E0
F0
ENDCHAR
STARTCHAR 21A9
ENCODING 8617
SWIDTH 900 0
DWIDTH 10 0
BBX 9 7 0 1
BITMAP
0F00
0180
2080
6080
FF80
6000
2000
ENDCHAR
STARTCHAR 21B0
ENCODING 8624
SWIDTH 810 0
DWIDTH 9 0
BBX 7 8 1 0
BITMAP
40
C0
FE
42
02
02
02
02
ENDCHAR
STARTCHAR 21B1
ENCODING 8625
SWIDTH 720 0
DWIDTH 8 0
BBX 8 8 0 0
BITMAP
04
06
FF
C6
C4
C0
C0
C0
ENDCHAR
STARTCHAR 21B2
ENCODING 8626
SWIDTH 810 0
DWIDTH 9 0
BBX 8 8 0 0
BITMAP
03
03
03
23
63
FF
60
20
ENDCHAR
STARTCHAR 21B3
ENCODING 8627
SWIDTH 810 0
DWIDTH 9 0
BBX 7 8 1 0
BITMAP
80
80
80
80
84
FE
06
08
ENDCHAR
STARTCHAR 21B4
ENCODING 8628
SWIDTH 810 0
DWIDTH 9 0
BBX 8 8 1 0
BITMAP
FC
04
04
04
04
1F
0E
04
ENDCHAR
STARTCHAR 21C6
ENCODING 8646
SWIDTH 1170 0
DWIDTH 13 0
BBX 11 10 1 -1
BITMAP
2000
6000
FFE0
6000
2000
0080
00C0
FFE0
00C0
0080
ENDCHAR
STARTCHAR 2202
ENCODING 8706
SWIDTH 630 0
DWIDTH 7 0
BBX 6 8 0 0
BITMAP
78
4C
04
7C
44
C4
6C
78
ENDCHAR
STARTCHAR 2206
ENCODING 8710
SWIDTH 720 0
DWIDTH 8 0
BBX 7 8 0 0
BITMAP
18
38
3C
2C
64
46
42
FE
ENDCHAR
STARTCHAR 220F
ENCODING 8719
SWIDTH 720 0
DWIDTH 8 0
BBX 6 8 1 0
BITMAP
FC
8C
8C
8C
8C
8C
8C
8C
ENDCHAR
STARTCHAR 2211
ENCODING 8721
SWIDTH 540 0
DWIDTH 6 0
BBX 6 8 0 0
BITMAP
FC
60
30
18
18
30
40
FC
ENDCHAR
STARTCHAR 2212
ENCODING 8722
SWIDTH 540 0
DWIDTH 6 0
BBX 5 1 1 3
BITMAP
F8
ENDCHAR
STARTCHAR 2215
ENCODING 8725
SWIDTH 450 0
DWIDTH 5 0
BBX 5 8 0 0
BITMAP
18
10
30
20
20
40
40
C0
ENDCHAR
STARTCHAR 2219
ENCODING 8729
SWIDTH 270 0
DWIDTH 3 0
BBX 1 2 1 2
BITMAP
80
80
ENDCHAR
STARTCHAR 221A
ENCODING 8730
SWIDTH 720 0
DWIDTH 8 0
BBX 7 10 1 0
BITMAP
0E
0C
08
08
98
90
D0
70
60
60
ENDCHAR
STARTCHAR 221E
ENCODING 8734
SWIDTH 810 0
DWIDTH 9 0
BBX 9 4 0 1
BITMAP
7700
DD80
5D80
7700
ENDCHAR
STARTCHAR 222B
ENCODING 8747
SWIDTH 360 0
DWIDTH 4 0
BBX 4 11 0 -3
BITMAP
30
60
60
60
60
60
60
60
60
60
C0
ENDCHAR
STARTCHAR 2248
ENCODING 8776
SWIDTH 630 0
DWIDTH 7 0
BBX 5 4 1 1
BITMAP
E8
38
E8
F8
ENDCHAR
STARTCHAR 2260
ENCODING 8800
SWIDTH 630 0
DWIDTH 7 0
BBX 5 6 1 0
BITMAP
10
F8
20
F8
C0
80
ENDCHAR
STARTCHAR 2264
ENCODING 8804
SWIDTH 540 0
DWIDTH 6 0
BBX 4 5 1 1
BITMAP
10
E0
F0
00
F0
ENDCHAR
STARTCHAR 2265
ENCODING 8805
SWIDTH 540 0
DWIDTH 6 0
BBX 4 5 1 1
BITMAP
80
70
F0
00
F0
ENDCHAR
STARTCHAR 22C5
ENCODING 8901
SWIDTH 270 0
DWIDTH 3 0
BBX 1 2 1 2
BITMAP
80
80
ENDCHAR
STARTCHAR 24C5
ENCODING 9413
SWIDTH 810 0
DWIDTH 9 0
BBX 9 8 0 0
BITMAP
1C00
6300
5D00
9480
9C80
5100
6300
3E00
ENDCHAR
STARTCHAR 25A0
ENCODING 9632
SWIDTH 900 0
DWIDTH 10 0
BBX 8 8 1 0
BITMAP
FF
FF
FF
FF
FF
FF
FF
FF
ENDCHAR
STARTCHAR 25A1
ENCODING 9633
SWIDTH 900 0
DWIDTH 10 0
BBX 8 8 1 0
BITMAP
FF
81
81
81
81
81
81
FF
ENDCHAR
STARTCHAR 25B2
ENCODING 9650
SWIDTH 810 0
DWIDTH 9 0
BBX 9 8 0 0
BITMAP
0800
0C00
1C00
1E00
3E00
7F00
7F00
FF80
ENDCHAR
STARTCHAR 25B3
ENCODING 9651
SWIDTH 810 0
DWIDTH 9 0
BBX 9 8 0 0
BITMAP
0800
0C00
1C00
1600
2200
6300
4100
FF80
ENDCHAR
STARTCHAR 25CA
ENCODING 9674
SWIDTH 630 0
DWIDTH 7 0
BBX 5 8 1 0
BITMAP
70
70
D8
88
88
D8
70
70
ENDCHAR
STARTCHAR 25CB
ENCODING 9675
SWIDTH 810 0
DWIDTH 9 0
BBX 9 8 0 0
BITMAP
1C00
6300
4100
C180
C180
4100
6300
1E00
ENDCHAR
STARTCHAR 25CF
ENCODING 9679
SWIDTH 810 0
DWIDTH 9 0
BBX 9 8 0 0
BITMAP
1C00
7F00
7F00
FF80
FF80
7F00
7F00
3E00
ENDCHAR
STARTCHAR 262E
ENCODING 9774
SWIDTH 810 0
DWIDTH 9 0
BBX 9 8 0 0
BITMAP
1C00
6B00
4900
C980
FD80
6B00
6B00
1E00
ENDCHAR
STARTCHAR 2713
ENCODING 10003
SWIDTH 900 0
DWIDTH 10 0
BBX 10 8 0 0
BITMAP
0040
00C0
0180
0300
C600
6C00
3800
1000
ENDCHAR
STARTCHAR 2715
ENCODING 10005
SWIDTH 720 0
DWIDTH 8 0
BBX 7 8 1 0
BITMAP
82
C6
6C
38
38
6C
C6
82
ENDCHAR
STARTCHAR 2780
ENCODING 10112
SWIDTH 810 0
DWIDTH 9 0
BBX 9 8 0 0
BITMAP
1E00
6300
4900
9880
8880
4900
6300
1E00
ENDCHAR
STARTCHAR 2781
ENCODING 10113
SWIDTH 810 0
DWIDTH 9 0
BBX 9 8 0 0
BITMAP
1C00
6300
5D00
9480
9880
5D00
6100
1E00
ENDCHAR
STARTCHAR 2782
ENCODING 10114
SWIDTH 810 0
DWIDTH 9 0
BBX 9 8 0 0
BITMAP
1E00
6300
5D00
8880
8480
5D00
6300
1C00
ENDCHAR
STARTCHAR 2783
ENCODING 10115
SWIDTH 810 0
DWIDTH 9 0
BBX 9 8 0 0
BITMAP
1E00
6300
4D00
9480
9C80
4500
6300
1C00
ENDCHAR
STARTCHAR 2784
ENCODING 10116
SWIDTH 810 0
DWIDTH 9 0
BBX 9 8 0 0
BITMAP
1E00
6300
5D00
9880
8480
5D00
6300
1C00
ENDCHAR
STARTCHAR 2785
ENCODING 10117
SWIDTH 810 0
DWIDTH 9 0
BBX 9 8 0 0
BITMAP
1C00
6300
5D00
9880
9480
5D00
6300
1E00
ENDCHAR
STARTCHAR 2786
ENCODING 10118
SWIDTH 810 0
DWIDTH 9 0
BBX 9 8 0 0
BITMAP
1E00
6300
5D00
8C80
8880
4900
6300
1E00
ENDCHAR
STARTCHAR 2787
ENCODING 10119
SWIDTH 810 0
DWIDTH 9 0
BBX 9 8 0 0
BITMAP
1C00
6300
5D00
9480
9C80
5D00
6300
1E00
ENDCHAR
STARTCHAR 2788
ENCODING 10120
SWIDTH 810 0
DWIDTH 9 0
BBX 9 8 0 0
BITMAP
1C00
6300
5D00
9480
8C80
5D00
6300
1E00
ENDCHAR
STARTCHAR E000
ENCODING 57344
SWIDTH 720 0
DWIDTH 8 0
BBX 8 8 0 0
BITMAP
3F
20
20
20
20
F8
70
20
ENDCHAR
STARTCHAR E001
ENCODING 57345
SWIDTH 1080 0
DWIDTH 12 0
BBX 11 8 1 0
BITMAP
1E00
3280
60C0
41E0
F080
6080
0300
1E00
ENDCHAR
STARTCHAR E002
ENCODING 57346
SWIDTH 990 0
DWIDTH 11 0
BBX 9 8 1 0
BITMAP
3800
C000
8300
8780
8300
8200
C600
3C00
ENDCHAR
STARTCHAR FB00
ENCODING 64256
SWIDTH 720 0
DWIDTH 8 0
BBX 7 9 0 0
BITMAP
36
64
64
FE
64
64
64
64
64
ENDCHAR
STARTCHAR FB01
ENCODING 64257
SWIDTH 630 0
DWIDTH 7 0
BBX 6 9 0 0
BITMAP
34
64
60
FC
64
64
64
64
64
ENDCHAR
STARTCHAR FB02
ENCODING 64258
SWIDTH 630 0
DWIDTH 7 0
BBX 6 8 0 0
BITMAP
74
64
FC
64
64
64
64
64
ENDCHAR
STARTCHAR FB03
ENCODING 64259
SWIDTH 990 0
DWIDTH 11 0
BBX 10 9 0 0
BITMAP
36C0
64C0
6400
FFC0
64C0
64C0
64C0
64C0
64C0
ENDCHAR
STARTCHAR FB04
ENCODING 64260
SWIDTH 990 0
DWIDTH 11 0
BBX 10 8 0 0
BITMAP
76C0
64C0
FFC0
64C0
64C0
64C0
64C0
64C0
ENDCHAR
STARTCHAR FEFF
ENCODING 65279
SWIDTH 0 0
DWIDTH 0 0
BBX 0 0 0 0
BITMAP
ENDCHAR
ENDFONT
